# xmcd
#
# Track frame offsets:
#	150
#	21318
#	38975
#	61592
#	86647
#	101833
#	123289
#	137337
#	154096
#	173937
#	189748
#	210939
#	221423
#	237977
#
# Disc length: 3421
#
# Revision: 1
# Processed by: cddbd v1.5.1PL0 Copyright (c) Steve Scherf et al.
# Submitted via: dBpowerAMP V4.0
# Normalized: r0:TRMNUM
#
DISCID=ba0d5b0e
DTITLE=Rufus WainWright - Poses
DYEAR=1900
DGENRE=Country
TTITLE0=Cigarretas and Chocolate Mick
TTITLE1=Greek Song
TTITLE2=Poses
TTITLE3=Shadowns
TTITLE4=California
TTITLE5=The Power of Learning
TTITLE6=Grey Gardens
TTITLE7=RebelPrince
TTITLE8=The consort
TTITLE9=One Man Guy
TTITLE10=Evil Angel
TTITLE11=In a Graveyard
TTITLE12=Instant Pleasure
TTITLE13=Halleluyah
EXTD=
EXTT0=
EXTT1=
EXTT2=
EXTT3=
EXTT4=
EXTT5=
EXTT6=
EXTT7=
EXTT8=
EXTT9=
EXTT10=
EXTT11=
EXTT12=
EXTT13=
PLAYORDER=
